<svg xmlns="http://www.w3.org/2000/svg" class="h-10 w-auto" data-fg-bb447="2.48:44.6362:/src/app/components/Footer.tsx:12:15:448:6006:e:svg:etetetetetetetete" style="shape-rendering:geometricprecision;text-rendering:geometricprecision;fill-rule:evenodd;clip-rule:evenodd" viewBox="0 0 4921.02 1174.7"><path fill="#fff" fill-rule="nonzero" d="M1580.64 929.84V398.3h87.33v531.54zm337.91 0V398.3h87.33v531.54zm-277.92-235.4v-79.73h296.9v79.73zm628.74 242.99c-35.44 0-67.58-8.48-96.44-25.44-28.85-16.96-51.76-39.87-68.72-68.72s-25.44-61-25.44-96.44c0-35.43 8.48-67.33 25.44-95.68s39.87-51 68.72-67.96c28.86-16.96 61-25.44 96.44-25.44 35.94 0 68.34 8.35 97.2 25.06 28.85 16.71 51.76 39.36 68.72 67.96q25.44 42.9 25.44 96.06c0 35.44-8.48 67.58-25.44 96.44-16.96 28.85-39.87 51.76-68.72 68.72s-61.26 25.44-97.2 25.44m0-80.49c20.75 0 39.11-4.68 55.05-14.05 15.95-9.37 28.35-22.4 37.21-39.11s13.29-35.69 13.29-56.95-4.56-39.99-13.67-56.19-21.51-28.98-37.21-38.35c-15.69-9.37-33.92-14.05-54.67-14.05-20.25 0-38.35 4.68-54.29 14.05-15.95 9.37-28.35 22.15-37.21 38.35q-13.29 24.3-13.29 56.19c0 21.26 4.43 40.25 13.29 56.95s21.26 29.74 37.21 39.11 34.04 14.05 54.29 14.05m252.86 72.9V565.35h83.53v364.49zm242.23 0V712.67c0-24.3-7.59-43.16-22.78-56.57s-33.92-20.12-56.19-20.12c-15.19 0-28.73 3.04-40.63 9.11-11.89 6.08-21.39 14.81-28.48 26.2s-10.63 25.18-10.63 41.39l-32.65-18.23c0-27.84 6.07-51.89 18.22-72.14s28.6-36.07 49.36-47.46c20.75-11.39 44.04-17.08 69.86-17.08s49.1 5.57 69.86 16.7c20.75 11.14 37.21 26.83 49.36 47.08s18.22 44.55 18.22 72.9v235.4h-83.53zm242.23 0V712.67c0-24.3-7.59-43.16-22.78-56.57s-33.92-20.12-56.19-20.12c-14.68 0-28.1 3.04-40.25 9.11-12.15 6.08-21.77 14.81-28.85 26.2-7.09 11.39-10.63 25.18-10.63 41.39l-47.08-18.23c2.53-27.84 10.63-51.89 24.3-72.14s31.26-36.07 52.78-47.46 45.18-17.08 71-17.08c26.32 0 50.11 5.57 71.38 16.7 21.26 11.14 38.22 26.83 50.88 47.08s18.98 44.55 18.98 72.9v235.4h-83.53zm331.08 7.59c-36.45 0-69.22-8.23-98.33-24.68s-52.14-39.11-69.1-67.96c-16.96-28.86-25.44-61.25-25.44-97.2 0-35.94 8.35-68.22 25.06-96.82 16.7-28.6 39.36-51.26 67.96-67.96s60.37-25.06 95.3-25.06c33.92 0 63.91 7.85 89.98 23.54 26.07 15.7 46.57 37.21 61.51 64.55s22.4 58.47 22.4 93.4q0 9.12-1.14 18.6-1.14 9.495-3.42 20.88h-299.18v-68.34h255.9l-31.13 27.34c-1.01-22.27-5.31-41-12.91-56.19-7.59-15.19-18.35-26.83-32.27-34.93s-31-12.15-51.25-12.15c-21.26 0-39.74 4.56-55.43 13.67s-27.84 21.89-36.45 38.35c-8.6 16.45-12.91 36.07-12.91 58.85s4.56 42.78 13.67 59.99 22.02 30.5 38.72 39.86c16.71 9.37 35.94 14.05 57.71 14.05 18.73 0 36.07-3.29 52.01-9.87 15.95-6.58 29.49-16.2 40.63-28.86l53.15 53.92c-17.72 20.75-39.23 36.45-64.54 47.08s-52.14 15.95-80.49 15.95zm239.95-7.59V398.3h87.33v531.54zm59.99-227.8v-79.73h270.33v79.73zm0-224.01V398.3h283.24v79.73zm350.82 451.81V383.11h83.53v546.73zm321.2 7.59c-32.91 0-62.65-8.35-89.22-25.06-26.58-16.71-47.58-39.36-63.03-67.96q-23.16-42.9-23.16-96.06c0-35.94 7.72-68.21 23.16-96.82q23.16-42.9 63.03-68.34t89.22-25.44c27.84 0 52.52 5.95 74.04 17.84 21.52 11.9 38.6 28.22 51.26 48.98 12.66 20.75 18.99 44.3 18.99 70.62v104.79q0 39.48-18.6 70.62c-12.4 20.75-29.49 37.08-51.26 48.98s-46.57 17.85-74.42 17.85zm13.67-78.97c30.88 0 55.81-10.38 74.8-31.14 18.98-20.75 28.48-47.33 28.48-79.73 0-21.77-4.3-41-12.91-57.71s-20.63-29.74-36.07-39.11-33.54-14.05-54.29-14.05c-20.25 0-38.09 4.68-53.53 14.05s-27.59 22.4-36.45 39.11-13.29 35.94-13.29 57.71 4.43 41 13.29 57.71c8.86 16.7 21.01 29.74 36.45 39.1 15.44 9.37 33.28 14.05 53.53 14.05zm97.95 71.38v-97.95l14.43-88.84-14.43-88.09v-89.6h83.53v364.49h-83.53zm399.42 0-104.79-154.15-15.19-13.67-141.24-196.67h101l93.4 135.16 14.43 12.91 152.63 216.41h-100.23zm-268.05 0 147.31-204.26 48.6 59.99-98.72 144.28h-97.2zm223.25-169.33-49.36-59.23 91.12-135.92h96.44z" data-fg-bb448="2.48:44.6362:/src/app/components/Footer.tsx:18:17:802:4332:e:path"/><path fill="#fff" d="m543.96 0 548.51 474.06v700.64H.28v-66.79h1025.4V507.99L545.52 89.92 67.03 506.3 0 475.77 499.16 41.72z" data-fg-bb449="2.48:44.6362:/src/app/components/Footer.tsx:19:17:5151:190:e:polygon"/><path fill="#e4d0ad" d="m66.95 506.31.13 588.87H.28L0 475.77z" data-fg-bb4410="2.48:44.6362:/src/app/components/Footer.tsx:20:17:5358:84:e:polygon"/><path fill="#e4d0ad" d="m439.78 522.74.07 572.43h-66.8l-.14-572.43z" data-fg-bb4411="2.48:44.6362:/src/app/components/Footer.tsx:21:17:5459:92:e:polygon"/><path fill="#e4d0ad" d="M67.11 869.38c-.01-51.49-.02-77.24-.02-77.24 151 28.74 286.58 20.8 406.74-23.81 163-56.42 274.74-199.11 331.86-421.38.75-2.92 2.05-8.06 2.78-11 38.51 33.44 60.95 52.92 60.95 52.92-54.95 193.55-137.88 323.47-250.36 395.28-147.79 89.33-331.78 117.74-551.96 85.24z" data-fg-bb4412="2.48:44.6362:/src/app/components/Footer.tsx:22:17:5568:311:e:path"/><path fill="#e4d0ad" d="m439.79 522.74 301.17-.04c-12.13 23.79-25.24 46.09-39.35 66.84l-261.82.07z" data-fg-bb4413="2.48:44.6362:/src/app/components/Footer.tsx:23:17:5896:116:e:path"/><path fill="#ddc69d" d="m439.78 522.74.07 66.86h-66.8l-.14-66.86z" data-fg-bb4414="2.48:44.6362:/src/app/components/Footer.tsx:24:17:6029:88:e:polygon"/><path fill="#ddc69d" d="m439.78 779.86.01 78.5c-21.71 5.5-43.99 10.04-66.82 13.65l-.02-75.54c22.76-4.39 45.04-9.92 66.83-16.61" data-fg-bb4415="2.48:44.6362:/src/app/components/Footer.tsx:25:17:6134:139:e:path"/><path fill="#ddc69d" d="M701.61 589.54c14.11-20.75 27.22-43.05 39.35-66.84l81.7-.01c-10.07 23.59-20.75 45.85-32.04 66.83z" data-fg-bb4416="2.48:44.6362:/src/app/components/Footer.tsx:26:17:6290:143:e:path"/></svg>